<svg width="16" height="13" viewBox="0 0 16 13" fill="none" xmlns="http://www.w3.org/2000/svg">
<path d="M15.6 10.5625H9.5385C9.52 11.0655 9.17075 11.375 8.72 11.375H7.2C6.73275 11.375 6.3745 10.9314 6.38075 10.5625H0.4C0.18 10.5625 0 10.7453 0 10.9688V11.375C0 12.2688 0.72 13 1.6 13H14.4C15.28 13 16 12.2688 16 11.375V10.9688C16 10.7453 15.82 10.5625 15.6 10.5625ZM14.4 1.21875C14.4 0.548438 13.86 0 13.2 0H2.8C2.14 0 1.6 0.548438 1.6 1.21875V9.75H14.4V1.21875ZM12.8 8.125H3.2V1.625H12.8V8.125Z" fill="#292D32"/>
</svg>
