<svg width="13" height="13" viewBox="0 0 13 13" fill="none" xmlns="http://www.w3.org/2000/svg">
<path d="M11.9432 0.0375867L3.819 2.43689C3.65409 2.48869 3.50999 2.59175 3.40766 2.73107C3.30533 2.8704 3.2501 3.03873 3.25 3.2116V9.84935C2.98394 9.78477 2.71128 9.75136 2.4375 9.74981C1.0918 9.74981 0 10.4775 0 11.3749C0 12.2723 1.0918 13 2.4375 13C3.7832 13 4.875 12.2723 4.875 11.3749V5.44128L11.375 3.53687V8.22451C11.109 8.1597 10.8363 8.12621 10.5625 8.12472C9.2168 8.12472 8.125 8.85245 8.125 9.74981C8.125 10.6472 9.2168 11.3749 10.5625 11.3749C11.9082 11.3749 13 10.6474 13 9.74981V0.811792C12.9999 0.684232 12.9697 0.558492 12.912 0.444749C12.8543 0.331005 12.7706 0.232454 12.6677 0.15707C12.5648 0.0816862 12.4456 0.0315882 12.3197 0.0108306C12.1939 -0.00992697 12.0649 -0.000761018 11.9432 0.0375867Z" fill="#292D32"/>
</svg>
