<svg width="12" height="14" viewBox="0 0 12 14" fill="none" xmlns="http://www.w3.org/2000/svg">
<path d="M10.5 4.66667H9.75V3.33333C9.75 1.49333 8.07 0 6 0C3.93 0 2.25 1.49333 2.25 3.33333V4.66667H1.5C0.675 4.66667 0 5.26667 0 6V12.6667C0 13.4 0.675 14 1.5 14H10.5C11.325 14 12 13.4 12 12.6667V6C12 5.26667 11.325 4.66667 10.5 4.66667ZM6 10.6667C5.175 10.6667 4.5 10.0667 4.5 9.33333C4.5 8.6 5.175 8 6 8C6.825 8 7.5 8.6 7.5 9.33333C7.5 10.0667 6.825 10.6667 6 10.6667ZM8.325 4.66667H3.675V3.33333C3.675 2.19333 4.7175 1.26667 6 1.26667C7.2825 1.26667 8.325 2.19333 8.325 3.33333V4.66667Z" fill="white"/>
</svg>
